# Blender v2.71 (sub 0) OBJ File: ''
# www.blender.org
mtllib cone.mtl
o Cone
v 0.000000 -1.000000 -1.000000
v 0.000000 1.000000 0.000000
v 0.195090 -1.000000 -0.980785
v 0.382683 -1.000000 -0.923880
v 0.555570 -1.000000 -0.831470
v 0.707107 -1.000000 -0.707107
v 0.831470 -1.000000 -0.555570
v 0.923880 -1.000000 -0.382683
v 0.980785 -1.000000 -0.195090
v 1.000000 -1.000000 -0.000000
v 0.980785 -1.000000 0.195090
v 0.923880 -1.000000 0.382683
v 0.831470 -1.000000 0.555570
v 0.707107 -1.000000 0.707107
v 0.555570 -1.000000 0.831470
v 0.382683 -1.000000 0.923880
v 0.195090 -1.000000 0.980785
v -0.000000 -1.000000 1.000000
v -0.195091 -1.000000 0.980785
v -0.382684 -1.000000 0.923879
v -0.555571 -1.000000 0.831469
v -0.707107 -1.000000 0.707106
v -0.831470 -1.000000 0.555570
v -0.923880 -1.000000 0.382683
v -0.980785 -1.000000 0.195089
v -1.000000 -1.000000 -0.000001
v -0.980785 -1.000000 -0.195091
v -0.923879 -1.000000 -0.382684
v -0.831469 -1.000000 -0.555571
v -0.707106 -1.000000 -0.707108
v -0.555569 -1.000000 -0.831470
v -0.382682 -1.000000 -0.923880
v -0.195089 -1.000000 -0.980786
vt 0.025146 0.530860
vt 0.293186 0.949429
vt 0.000000 0.553972
vt 0.462304 0.398711
vt 0.757901 0.000000
vt 0.491955 0.422495
vt 0.056329 0.509219
vt 0.092350 0.489880
vt 0.131826 0.473586
vt 0.173240 0.460962
vt 0.214999 0.452496
vt 0.255500 0.448511
vt 0.293186 0.449160
vt 0.763143 0.559790
vt 1.000000 1.000000
vt 0.731960 0.581431
vt 0.799165 0.540451
vt 0.838641 0.524156
vt 0.880054 0.511533
vt 0.921814 0.503067
vt 0.962315 0.499082
vt 1.000000 0.499731
vt 0.694275 1.000000
vt 0.731960 0.499082
vt 0.731960 0.999350
vt 0.653774 0.996015
vt 0.612015 0.987548
vt 0.570601 0.974925
vt 0.531125 0.958631
vt 0.495103 0.939291
vt 0.463920 0.917650
vt 0.438775 0.894539
vt 0.724204 0.499082
vt 0.757901 0.496187
vt 0.686565 0.497077
vt 0.646429 0.490251
vt 0.605338 0.478866
vt 0.564873 0.463358
vt 0.526588 0.444324
vt 0.438775 0.373885
vt 0.413806 0.118031
vt 0.008431 0.289668
vt 0.000000 0.246343
vt 0.115468 0.025523
vt 0.283380 0.008618
vt 0.000000 0.202168
vt 0.008431 0.158843
vt 0.048978 0.081301
vt 0.024969 0.118031
vt 0.079536 0.050065
vt 0.197779 0.000000
vt 0.155394 0.008618
vt 0.240995 0.000000
vt 0.323306 0.025523
vt 0.359239 0.050065
vt 0.389797 0.081301
vt 0.079536 0.398446
vt 0.048978 0.367209
vt 0.430344 0.289668
vt 0.430344 0.158842
vt 0.438775 0.246343
vt 0.359239 0.398446
vt 0.323306 0.422988
vt 0.155394 0.439893
vt 0.240995 0.448511
vt 0.197779 0.448511
vt 0.115468 0.422988
vt 0.024969 0.330480
vt 0.438775 0.202168
vt 0.413806 0.330480
vt 0.389797 0.367210
vt 0.283380 0.439893
vn -0.330700 -0.503300 -0.798300
vn 0.000000 1.000000 0.000000
vn -0.168600 -0.503300 -0.847500
vn 0.000000 -0.503300 -0.864100
vn 0.168600 -0.503300 -0.847500
vn -0.480100 -0.503300 -0.718500
vn -0.611000 -0.503300 -0.611000
vn -0.718500 -0.503300 -0.480100
vn -0.798300 -0.503300 -0.330700
vn -0.847500 -0.503300 -0.168600
vn -0.864100 -0.503300 0.000000
vn -0.847500 -0.503300 0.168600
vn -0.798300 -0.503300 0.330700
vn -0.718500 -0.503300 0.480100
vn -0.611000 -0.503300 0.611000
vn -0.480100 -0.503300 0.718500
vn -0.330700 -0.503300 0.798300
vn -0.168600 -0.503300 0.847500
vn 0.000000 -0.503300 0.864100
vn 0.168600 -0.503300 0.847500
vn 0.330700 -0.503300 0.798300
vn 0.480100 -0.503300 0.718500
vn 0.611000 -0.503300 0.611000
vn 0.718500 -0.503300 0.480100
vn 0.798300 -0.503300 0.330700
vn 0.847500 -0.503300 0.168600
vn 0.864100 -0.503300 0.000000
vn 0.847500 -0.503300 -0.168600
vn 0.798300 -0.503300 -0.330700
vn 0.718500 -0.503300 -0.480100
vn 0.611000 -0.503300 -0.611000
vn 0.480100 -0.503300 -0.718500
vn 0.330700 -0.503300 -0.798300
usemtl None
s 1
f 32/1/1 2/2/2 33/3/3
f 1/4/4 2/5/2 3/6/5
f 31/7/6 2/2/2 32/1/1
f 30/8/7 2/2/2 31/7/6
f 29/9/8 2/2/2 30/8/7
f 28/10/9 2/2/2 29/9/8
f 27/11/10 2/2/2 28/10/9
f 26/12/11 2/2/2 27/11/10
f 25/13/12 2/2/2 26/12/11
f 24/14/13 2/15/2 25/16/12
f 23/17/14 2/15/2 24/14/13
f 22/18/15 2/15/2 23/17/14
f 21/19/16 2/15/2 22/18/15
f 20/20/17 2/15/2 21/19/16
f 19/21/18 2/15/2 20/20/17
f 18/22/19 2/15/2 19/21/18
f 17/23/20 2/24/2 18/25/19
f 16/26/21 2/24/2 17/23/20
f 15/27/22 2/24/2 16/26/21
f 14/28/23 2/24/2 15/27/22
f 13/29/24 2/24/2 14/28/23
f 12/30/25 2/24/2 13/29/24
f 11/31/26 2/24/2 12/30/25
f 10/32/27 2/24/2 11/31/26
f 9/33/28 2/5/2 10/34/27
f 8/35/29 2/5/2 9/33/28
f 7/36/30 2/5/2 8/35/29
f 6/37/31 2/5/2 7/36/30
f 5/38/32 2/5/2 6/37/31
f 4/39/33 2/5/2 5/38/32
f 33/40/3 2/5/2 1/4/4
f 3/6/5 2/5/2 4/39/33
f 16/41/21 33/42/3 1/43/4
f 1/43/4 8/44/29 12/45/25
f 1/43/4 3/46/5 4/47/33
f 6/48/31 8/44/29 5/49/32
f 6/48/31 7/50/30 8/44/29
f 10/51/27 12/45/25 9/52/28
f 10/51/27 11/53/26 12/45/25
f 12/45/25 13/54/24 14/55/23
f 14/55/23 15/56/22 16/41/21
f 33/42/3 30/57/7 31/58/6
f 20/59/17 17/60/20 19/61/18
f 23/62/14 24/63/13 20/59/17
f 12/45/25 8/44/29 9/52/28
f 33/42/3 28/64/9 30/57/7
f 26/65/11 27/66/10 28/64/9
f 28/64/9 29/67/8 30/57/7
f 32/68/1 33/42/3 31/58/6
f 4/47/33 8/44/29 1/43/4
f 17/60/20 18/69/19 19/61/18
f 8/44/29 4/47/33 5/49/32
f 12/45/25 14/55/23 16/41/21
f 21/70/16 23/62/14 20/59/17
f 21/70/16 22/71/15 23/62/14
f 33/42/3 25/72/12 28/64/9
f 16/41/21 1/43/4 12/45/25
f 16/41/21 20/59/17 24/63/13
f 20/59/17 16/41/21 17/60/20
f 24/63/13 33/42/3 16/41/21
f 25/72/12 26/65/11 28/64/9
f 33/42/3 24/63/13 25/72/12
